<?xml version="1.0" encoding="UTF-8"?>
<svg id="Layer_2" xmlns="http://www.w3.org/2000/svg" viewBox="0 0 793.99 1449.92">
  <g id="Layer_1-2" data-name="Layer_1">
    <g>
      <path d="M547.36,194.4v698.31h49.47V366.52s125.58,179.89,142.71,275.03c0,0,17.12,91.33-51.37,161.73-11.61,11.93-25.22,23.17-33.7,37.91-8.79,15.29-10.61,34.23-10.06,51.52v75.16s4.76,32.35-21.88,32.35h-134.14V101.17l-20.93-31.4-31.4,45.67v881.93l-257.71,2.78c-7.37.08-14.56-3.21-18.71-9.3-1.92-2.82-3.29-6.33-3.29-10.61v-23.06h-51.37v20.71c3.33,55.15,38.56,71.24,62.32,72.75,44.71,2.85,471.41,0,471.41,0,0,0,54.23-4.76,55.18-58.03l.88-111.24c.04-5.42,2.2-10.59,6.04-14.42,13.97-13.94,48.86-51.05,65.38-89.35,20.93-48.52,49.47-101.64,1.9-216.76-47.57-115.12-150.99-266.43-220.72-366.44Z" fill="#fff"/>
      <polygon points="363.75 224.85 312.37 303.81 312.37 893.67 363.75 893.67 363.75 224.85" fill="#fff"/>
      <path d="M429.39,17.45l-15.82-11.55c-14.1-10.3-33.95-6.75-43.61,7.8l-166.06,250.15v572.73h-60.89s-87.53-54.23-83.72-178.86c0,0,16.17-117.02,97.99-217.87v-97.99S25.06,529.29,14.59,626.33c-10.1,93.66,6.38,176.68,105.9,258.47,7,5.76,15.83,8.87,24.9,8.87h108.95l.95-615.54L429.39,17.45Z" fill="#fff"/>
      <polygon points="7.61 1141.34 65.96 1141.34 58.35 1152.13 58.35 1211.75 104.97 1202.87 104.97 1154.66 99.58 1141.34 153.49 1141.34 147.15 1155.93 147.15 1280.88 153.49 1296.74 98.95 1296.74 104.97 1278.98 104.97 1231.41 58.35 1238.39 58.35 1277.71 64.7 1296.74 10.78 1296.74 15.86 1288.49 15.86 1155.93 7.61 1141.34" fill="#fff"/>
      <path d="M339.98,1296.73l-4.45-6.33-60.25-149.07h-52.02l6.33,13.34-57.72,135.72-7.61,6.33h59.64l-4.45-6.97,6.33-20.92,55.19-5.09,6.97,25.37-5.09,7.61h57.11ZM234.68,1240.93l19.64-49.3,15.87,45.49-35.51,3.81Z" fill="#fff"/>
      <path d="M653.2,1296.73l-4.45-6.33-60.25-149.07h-52.02l6.33,13.34-57.72,135.72-7.61,6.33h59.64l-4.45-6.97,6.33-20.92,55.19-5.09,6.97,25.37-5.09,7.61h57.11ZM547.9,1240.93l19.64-49.3,15.87,45.49-35.51,3.81Z" fill="#fff"/>
      <polygon points="350.43 1141.34 405.61 1141.34 398 1156.73 398 1265.66 452.23 1265.66 474.11 1254.24 465.07 1296.74 350.43 1296.74 358.99 1286.59 358.99 1156.25 350.43 1141.34" fill="#fff"/>
      <polygon points="670.31 1141.34 725.49 1141.34 717.88 1156.73 717.88 1265.66 772.11 1265.66 793.99 1254.24 784.95 1296.74 670.31 1296.74 678.88 1286.59 678.88 1156.25 670.31 1141.34" fill="#fff"/>
      <text transform="translate(0 1409.1)" fill="#fff" font-family="Montserrat-ExtraBold, Montserrat" font-size="90.1" font-variation-settings="&apos;wght&apos; 800" font-weight="700" letter-spacing=".34em"><tspan x="0" y="0">INDONESIA</tspan></text>
    </g>
  </g>
</svg>