<?xml version="1.0" encoding="UTF-8"?>
<svg id="Layer_2" xmlns="http://www.w3.org/2000/svg" viewBox="0 0 511.01 127.23">
  <g id="Layer_1-2" data-name="Layer_1">
    <g>
      <g>
        <path d="M69.31,94.5h5.16c1.8,0,3.26,1.46,3.26,3.26v5.16c0,10.94-8.88,19.82-19.82,19.82h-5.16c-1.8,0-3.26-1.46-3.26-3.26v-5.16c0-10.94,8.88-19.82,19.82-19.82Z" transform="translate(185.4 140.43) rotate(135)" fill="#fbb03b"/>
        <path d="M42.86,85.9h5.16c1.8,0,3.26,1.46,3.26,3.26v5.16c0,10.94-8.88,19.82-19.82,19.82h-5.16c-1.8,0-3.26-1.46-3.26-3.26v-5.16c0-10.94,8.88-19.82,19.82-19.82Z" transform="translate(89.51 192.99) rotate(171)" fill="#fbb03b"/>
        <path d="M26.51,63.4h5.16c1.8,0,3.26,1.46,3.26,3.26v5.16c0,10.94-8.88,19.82-19.82,19.82h-5.16c-1.8,0-3.26-1.46-3.26-3.26v-5.16c0-10.94,8.88-19.82,19.82-19.82Z" transform="translate(4.17 156.04) rotate(-153)" fill="#fbb03b"/>
        <path d="M26.51,35.59h5.16c1.8,0,3.26,1.46,3.26,3.26v5.16c0,10.94-8.88,19.82-19.82,19.82h-5.16c-1.8,0-3.26-1.46-3.26-3.26v-5.16c0-10.94,8.88-19.82,19.82-19.82Z" transform="translate(-14.02 90.82) rotate(-117)" fill="#fbb03b"/>
        <path d="M42.86,13.09h5.16c1.8,0,3.26,1.46,3.26,3.26v5.16c0,10.94-8.88,19.82-19.82,19.82h-5.16c-1.8,0-3.26-1.46-3.26-3.26v-5.16c0-10.94,8.88-19.82,19.82-19.82Z" transform="translate(4.48 59.66) rotate(-81)" fill="#fbb03b"/>
        <path d="M69.31,4.5h5.16c1.8,0,3.26,1.46,3.26,3.26v5.16c0,10.94-8.88,19.82-19.82,19.82h-5.16c-1.8,0-3.26-1.46-3.26-3.26v-5.16c0-10.94,8.88-19.82,19.82-19.82Z" transform="translate(5.47 50.43) rotate(-45)" fill="#fbb03b"/>
        <path d="M95.76,13.09h5.16c1.8,0,3.26,1.46,3.26,3.26v5.16c0,10.94-8.88,19.82-19.82,19.82h-5.16c-1.8,0-3.26-1.46-3.26-3.26v-5.16c0-10.94,8.88-19.82,19.82-19.82Z" transform="translate(-3.15 14.42) rotate(-9)" fill="#fbb03b"/>
        <path d="M112.11,35.59h5.16c1.8,0,3.26,1.46,3.26,3.26v5.16c0,10.94-8.88,19.82-19.82,19.82h-5.16c-1.8,0-3.26-1.46-3.26-3.26v-5.16c0-10.94,8.88-19.82,19.82-19.82Z" transform="translate(34.16 -42.89) rotate(27)" fill="#fbb03b"/>
        <path d="M112.11,63.4h5.16c1.8,0,3.26,1.46,3.26,3.26v5.16c0,10.94-8.88,19.82-19.82,19.82h-5.16c-1.8,0-3.26-1.46-3.26-3.26v-5.16c0-10.94,8.88-19.82,19.82-19.82Z" transform="translate(127.17 -52.49) rotate(63)" fill="#fbb03b"/>
        <path d="M95.76,85.9h5.16c1.8,0,3.26,1.46,3.26,3.26v5.16c0,10.94-8.88,19.82-19.82,19.82h-5.16c-1.8,0-3.26-1.46-3.26-3.26v-5.16c0-10.94,8.88-19.82,19.82-19.82Z" transform="translate(202.94 26.71) rotate(99)" fill="#fbb03b"/>
      </g>
      <g>
        <path d="M160.81,92.57c-2.46-.05-4.58-.97-6.34-2.76-1.77-1.79-2.65-3.93-2.65-6.42v-38.71c0-1.98.37-3.69,1.12-5.12.75-1.43,1.8-2.53,3.14-3.28,1.35-.75,2.97-1.12,4.88-1.12h17.11c3.58,0,6.74.55,9.49,1.66s4.99,2.71,6.74,4.8,2.97,4.63,3.66,7.6c.41,1.83.61,3.47.61,4.92,0,5.21-1.77,9.36-5.3,12.46l-.3.34-1.79,1.41-1.1.84,6.63,8.8c1.3,1.7,1.94,3.61,1.94,5.72,0,1.4-.32,2.74-.97,4.02-.65,1.28-1.59,2.38-2.84,3.3-1.63,1.17-3.34,1.75-5.14,1.75-3.25,0-6.01-1.73-8.27-5.18l-11.66-17.3v13.34c0,1.68-.4,3.19-1.2,4.53s-1.87,2.42-3.22,3.22c-1.35.8-2.86,1.2-4.53,1.2ZM169.84,57.71h7.51c.89,0,1.64-.35,2.27-1.05.62-.7.93-1.59.93-2.69-.03-.86-.33-1.59-.91-2.17-.58-.58-1.24-.88-1.98-.88h-7.81v6.78Z" fill="#fbb03b"/>
        <path d="M204.82,89.94c-1.78-1.78-2.67-3.96-2.67-6.55v-39.74c0-2.54.88-4.68,2.65-6.42,1.77-1.74,3.91-2.61,6.42-2.61,1.6,0,3.09.4,4.48,1.2,1.38.8,2.48,1.9,3.28,3.3.8,1.4,1.2,2.93,1.2,4.61v39.82c0,1.19-.22,2.36-.67,3.49-.44,1.13-1.1,2.13-1.96,2.99-1.78,1.7-3.89,2.55-6.32,2.55-2.59,0-4.72-.88-6.4-2.63Z" fill="#fbb03b"/>
        <path d="M227.45,89.71c-1.83-2.18-2.74-4.58-2.74-7.2v-38.79c0-1.93.51-3.67,1.54-5.22,1.03-1.55,2.39-2.67,4.1-3.35,1.09-.46,2.18-.69,3.28-.69,2.72,0,5.3,1.42,7.73,4.27l19.81,23.51v-18.52c0-2.51.9-4.67,2.71-6.48,1.78-1.75,3.89-2.63,6.32-2.63,1.22,0,2.38.22,3.49.67,1.1.44,2.05,1.1,2.84,1.96.81.79,1.46,1.76,1.94,2.91.48,1.16.72,2.34.72,3.56v39.74c0,.38-.05.98-.15,1.79-.25,1.4-.82,2.65-1.7,3.75s-1.94,1.96-3.18,2.57-2.59.91-4.04.91c-1.73,0-3.29-.43-4.69-1.3-1.02-.69-1.77-1.35-2.25-1.98l-20.46-25.11v19.28c0,2.62-.88,4.8-2.63,6.55s-3.76,2.55-6.17,2.55c-2.62,0-4.78-.93-6.48-2.78Z" fill="#fbb03b"/>
        <path d="M317.94,76.34c2.69-.51,4.6-1.54,5.72-3.09h-4.69c-2.24,0-4.12-.79-5.66-2.36-1.54-1.57-2.31-3.47-2.31-5.68.05-1.47.42-2.8,1.1-3.98s1.63-2.13,2.84-2.84c1.21-.71,2.52-1.07,3.94-1.07h15.13c5.56,0,8.34,3.06,8.34,9.18,0,1.78-.18,3.61-.53,5.49-.36,2.36-1.23,4.8-2.63,7.32-1.55,2.77-3.52,5.15-5.92,7.14-2.4,1.99-5.16,3.51-8.27,4.55-3.11,1.04-6.53,1.56-10.27,1.56-2.13,0-4.5-.2-7.09-.61-3.56-.61-6.78-1.67-9.66-3.18-2.88-1.51-5.4-3.46-7.56-5.85-2.16-2.39-3.89-5.11-5.18-8.15-1.5-3.61-2.25-7.26-2.25-10.97,0-4.88,1.24-9.49,3.71-13.85,2.48-4.36,5.98-7.96,10.5-10.8,4.93-3.07,10.54-4.61,16.84-4.61.81,0,1.98.05,3.51.15,2.72.23,5.37.75,7.96,1.56,2.49.81,4.83,1.88,7.01,3.2,4.45,2.92,6.67,6.05,6.67,9.37,0,1.98-.91,3.77-2.74,5.37-1.3,1.14-2.86,1.71-4.69,1.71-1.35,0-2.78-.32-4.31-.95h-.08l-3.28-1.71c-.71-.41-1.26-.69-1.64-.84-3.18-1.47-6.13-2.21-8.88-2.21-2.21,0-4.19.44-5.94,1.31s-3.21,2.17-4.38,3.87c-1.17,1.7-1.94,3.67-2.32,5.91-.15.71-.23,1.41-.23,2.1,0,.89.08,1.75.23,2.59.46,2.26,1.27,4.2,2.44,5.81,1.17,1.61,2.65,2.86,4.44,3.73s3.82,1.31,6.08,1.31c1.37,0,2.72-.17,4.04-.5Z" fill="#fbb03b"/>
        <path d="M355.25,91.88c-2.69,0-4.88-.91-6.55-2.72-1.68-1.82-2.51-4.24-2.51-7.26v-37.38c0-1.7.42-3.28,1.26-4.72s1.96-2.58,3.35-3.41c1.4-.83,2.93-1.24,4.61-1.24h12.95c1.09,0,2.24.08,3.43.23,2.57.33,4.86.99,6.9,1.98s3.77,2.23,5.22,3.71c1.45,1.49,2.56,3.17,3.33,5.05.77,1.88,1.16,3.87,1.16,5.98,0,.76-.03,1.36-.08,1.79-.28,3-1.23,5.59-2.86,7.77l.15.19,1.07.69,1.1.69.46.42c1.07.89,1.97,1.92,2.72,3.09.75,1.17,1.31,2.42,1.7,3.75s.57,2.74.57,4.21c0,1.75-.27,3.47-.8,5.16-.53,1.69-1.36,3.31-2.48,4.86-.91,1.14-1.84,2.12-2.78,2.93-1.68,1.45-3.52,2.51-5.52,3.2s-4.33,1.03-6.97,1.03h-19.43ZM364.2,76.19h8.53c.69,0,1.27-.23,1.75-.69s.72-1.05.72-1.79c0-.79-.23-1.45-.69-2-.46-.55-1.05-.82-1.79-.82h-8.53v5.3ZM364.31,55.76h4.12c.76,0,1.46-.29,2.1-.88.53-.41.8-.95.8-1.64s-.29-1.26-.88-1.71c-.58-.51-1.31-.76-2.17-.76h-3.96v4.99Z" fill="#fbb03b"/>
        <path d="M419.3,92.11c-3.76-.61-7.07-1.63-9.93-3.07-2.86-1.43-5.23-3.24-7.11-5.41-1.88-2.17-3.31-4.72-4.29-7.64-.98-2.92-1.47-6.11-1.47-9.56v-22.71c0-2.57.86-4.75,2.59-6.55,1.8-1.8,3.96-2.71,6.48-2.71s4.55.85,6.25,2.55c1.8,1.8,2.71,3.99,2.71,6.55v23.43c0,1.78.3,3.35.91,4.71.61,1.36,1.49,2.48,2.65,3.35s2.57,1.47,4.25,1.77c.86.1,1.51.15,1.94.15.41,0,1.04-.05,1.91-.15,1.68-.3,3.09-.89,4.23-1.75,1.14-.86,2.02-1.98,2.63-3.35s.91-2.95.91-4.72v-23.43c0-2.54.91-4.72,2.74-6.55,1.7-1.7,3.78-2.55,6.25-2.55s4.67.9,6.4,2.71c.81.79,1.46,1.77,1.94,2.95s.72,2.38.72,3.6v22.71c0,3.51-.48,6.71-1.45,9.6s-2.41,5.43-4.32,7.6-4.31,3.98-7.16,5.41c-2.86,1.44-6.18,2.46-9.96,3.07-1.3.25-2.93.38-4.92.38s-3.54-.13-4.92-.38Z" fill="#fbb03b"/>
        <path d="M459.26,89.71c-1.83-2.18-2.74-4.58-2.74-7.2v-38.79c0-1.93.51-3.67,1.54-5.22,1.03-1.55,2.39-2.67,4.1-3.35,1.09-.46,2.18-.69,3.28-.69,2.72,0,5.3,1.42,7.73,4.27l19.81,23.51v-18.52c0-2.51.9-4.67,2.71-6.48,1.78-1.75,3.89-2.63,6.32-2.63,1.22,0,2.38.22,3.49.67,1.1.44,2.05,1.1,2.84,1.96.81.79,1.46,1.76,1.94,2.91.48,1.16.72,2.34.72,3.56v39.74c0,.38-.05.98-.15,1.79-.25,1.4-.82,2.65-1.7,3.75s-1.94,1.96-3.18,2.57-2.59.91-4.04.91c-1.73,0-3.29-.43-4.69-1.3-1.02-.69-1.77-1.35-2.25-1.98l-20.46-25.11v19.28c0,2.62-.88,4.8-2.63,6.55s-3.76,2.55-6.17,2.55c-2.62,0-4.78-.93-6.48-2.78Z" fill="#fbb03b"/>
      </g>
    </g>
  </g>
</svg>