<?xml version="1.0" encoding="UTF-8"?>
<svg id="Layer_2" xmlns="http://www.w3.org/2000/svg" viewBox="0 0 146.42 153.54">
  <g id="Layer_1-2" data-name="Layer_1">
    <g id="Layer_1-2">
      <g>
        <path d="M80.39,147.98l-4.4,4.4c-1.54,1.54-4.03,1.54-5.56,0l-4.4-4.4c-9.34-9.34-9.34-24.49,0-33.83l4.4-4.4c1.54-1.54,4.03-1.54,5.56,0l4.4,4.4c9.34,9.34,9.34,24.49,0,33.83h0Z" fill="#fbb03b"/>
        <path d="M37.15,138.61l-6.15.97c-2.15.34-4.16-1.12-4.5-3.27l-.97-6.15c-2.07-13.04,6.84-25.3,19.88-27.37l6.15-.97c2.15-.34,4.16,1.12,4.5,3.27l.97,6.15c2.07,13.04-6.84,25.3-19.88,27.37Z" fill="#fbb03b"/>
        <path d="M7.7,105.62l-5.55-2.83c-1.94-.99-2.71-3.36-1.72-5.29l2.83-5.55c5.99-11.76,20.41-16.45,32.17-10.45l5.55,2.83c1.94.99,2.71,3.36,1.72,5.29l-2.83,5.55c-5.99,11.76-20.41,16.45-32.17,10.45Z" fill="#fbb03b"/>
        <path d="M3.26,61.6l-2.83-5.55c-.99-1.94-.22-4.31,1.72-5.29l5.55-2.83c11.76-5.99,26.18-1.31,32.17,10.45l2.83,5.55c.99,1.94.22,4.31-1.72,5.29l-5.55,2.83c-11.76,5.99-26.18,1.31-32.17-10.45Z" fill="#fbb03b"/>
        <path d="M25.54,23.38l.97-6.15c.34-2.15,2.36-3.61,4.5-3.27l6.15.97c13.04,2.07,21.95,14.33,19.88,27.37l-.97,6.15c-.34,2.15-2.36,3.61-4.5,3.27l-6.15-.97c-13.04-2.07-21.95-14.33-19.88-27.37Z" fill="#fbb03b"/>
        <path d="M66.02,5.56l4.4-4.4c1.54-1.54,4.03-1.54,5.56,0l4.4,4.4c9.34,9.34,9.34,24.49,0,33.83l-4.4,4.4c-1.54,1.54-4.03,1.54-5.56,0l-4.4-4.4c-9.34-9.34-9.34-24.49,0-33.83Z" fill="#fbb03b"/>
        <path d="M109.25,14.93l6.15-.97c2.15-.34,4.16,1.12,4.5,3.27l.97,6.15c2.07,13.04-6.84,25.3-19.88,27.37l-6.15.97c-2.15.34-4.16-1.12-4.5-3.27l-.97-6.15c-2.07-13.04,6.84-25.3,19.88-27.37Z" fill="#fbb03b"/>
        <path d="M138.72,47.94l5.55,2.83c1.94.99,2.71,3.36,1.72,5.29l-2.83,5.55c-5.99,11.76-20.41,16.45-32.17,10.45l-5.55-2.83c-1.94-.99-2.71-3.36-1.72-5.29l2.83-5.55c5.99-11.76,20.41-16.45,32.17-10.45Z" fill="#fbb03b"/>
        <path d="M143.16,91.94l2.83,5.55c.99,1.94.22,4.31-1.72,5.29l-5.55,2.83c-11.76,5.99-26.18,1.31-32.17-10.45l-2.83-5.55c-.99-1.94-.22-4.31,1.72-5.29l5.55-2.83c11.76-5.99,26.18-1.31,32.17,10.45Z" fill="#fbb03b"/>
        <path d="M120.88,130.17l-.97,6.15c-.34,2.15-2.36,3.61-4.5,3.27l-6.15-.97c-13.04-2.07-21.95-14.33-19.88-27.37l.97-6.15c.34-2.15,2.36-3.61,4.5-3.27l6.15.97c13.04,2.07,21.95,14.33,19.88,27.37Z" fill="#fbb03b"/>
      </g>
    </g>
  </g>
</svg>